<svg id="Layer_1" data-name="Layer 1" xmlns="http://www.w3.org/2000/svg" viewBox="0 0 687.84 65.27"><defs><style>.cls-1{fill:#fff;}.cls-2{fill:none;}</style></defs><title>Wordmark Informal White</title><polygon class="cls-1" points="0 16.7 9.63 16.7 9.63 10.15 20.62 10.15 20.62 54.77 13.1 54.77 13.1 64.4 36.97 64.4 36.97 54.77 30.59 54.77 30.59 10.15 41.41 10.15 41.41 16.7 51.03 16.7 51.03 0.52 0 0.52 0 16.7"/><polygon class="cls-1" points="100.07 10.15 107.06 10.15 107.06 27.43 76.76 27.43 76.76 10.15 83.75 10.15 83.75 0.52 59.88 0.52 59.88 10.15 66.78 10.15 66.78 54.77 59.88 54.77 59.88 64.4 83.75 64.4 83.75 54.77 76.76 54.77 76.76 37.06 107.06 37.06 107.06 54.77 100.07 54.77 100.07 64.4 123.94 64.4 123.94 54.77 117.03 54.77 117.03 10.15 123.94 10.15 123.94 0.52 100.07 0.52 100.07 10.15"/><polygon class="cls-1" points="170.52 54.77 148.53 54.77 148.53 37.06 175.52 37.06 175.52 27.43 148.53 27.43 148.53 10.15 169.3 10.15 169.3 16.7 178.93 16.7 178.93 0.52 133.66 0.52 133.66 10.15 138.55 10.15 138.55 54.77 133.66 54.77 133.66 64.4 180.15 64.4 180.15 48.22 170.52 48.22 170.52 54.77"/><polygon class="cls-1" points="223.72 16.7 233.35 16.7 233.35 10.15 244.34 10.15 244.34 54.77 236.83 54.77 236.83 64.4 260.69 64.4 260.69 54.77 254.32 54.77 254.32 10.15 265.13 10.15 265.13 16.7 274.76 16.7 274.76 0.52 223.72 0.52 223.72 16.7"/><path class="cls-1" d="M314.79,39.75a16.44,16.44,0,0,0,8.73-5.9,19.29,19.29,0,0,0,3.54-11.78,14.78,14.78,0,0,0-2.33-8.36,19.14,19.14,0,0,0-5.64-5.55,24.41,24.41,0,0,0-7.17-3.1,28.58,28.58,0,0,0-6.93-1H285.29v9.63h3.93V58.36h-3.93V68h23.87V58.36h-10V40.73h5.2L317.24,68h15V58.36h-8.71ZM311.26,30a15.88,15.88,0,0,1-5.82.9H299.2V13.74h6.33a15.12,15.12,0,0,1,4.69.72,11.82,11.82,0,0,1,3.68,1.9,9.57,9.57,0,0,1,2.37,2.7,5.83,5.83,0,0,1,.82,3,9.67,9.67,0,0,1-.54,3,7.1,7.1,0,0,1-1.77,2.77A10.5,10.5,0,0,1,311.26,30Z" transform="translate(-1.68 -3.59)"/><polygon class="cls-1" points="339.39 10.15 346.29 10.15 346.29 54.77 339.39 54.77 339.39 64.4 363.25 64.4 363.25 54.77 356.26 54.77 356.26 10.15 363.25 10.15 363.25 0.52 339.39 0.52 339.39 10.15"/><polygon class="cls-1" points="494.84 10.15 501.13 10.15 501.13 43.61 459.5 0.52 447.4 0.52 447.4 10.15 455 10.15 455 54.77 447.4 54.77 447.4 64.4 471.27 64.4 471.27 54.77 464.98 54.77 464.98 22.26 506.52 64.4 511.11 64.4 511.11 64.4 511.11 54.77 511.11 10.15 518.7 10.15 518.7 0.52 494.84 0.52 494.84 10.15"/><path class="cls-1" d="M543,20a23.06,23.06,0,0,1,7.18-5,21.41,21.41,0,0,1,8.75-1.8,21,21,0,0,1,5.9.82,24.56,24.56,0,0,1,5.38,2.32l1.09.63,5.56-8.1-1.26-.74a34.22,34.22,0,0,0-7.87-3.37,32.1,32.1,0,0,0-8.8-1.19,31.4,31.4,0,0,0-12.69,2.6,33.63,33.63,0,0,0-10.33,7,32.84,32.84,0,0,0-7,10.39,32.18,32.18,0,0,0-2.56,12.72A31.86,31.86,0,0,0,528.92,49,32.65,32.65,0,0,0,546.23,66.3a31.87,31.87,0,0,0,12.68,2.56,31,31,0,0,0,8.82-1.24,36.25,36.25,0,0,0,7.76-3.31l.68-.39V39.23h-19v9.63h9v9.21a22.88,22.88,0,0,1-7.29,1.17,21.37,21.37,0,0,1-8.75-1.8A23.75,23.75,0,0,1,543,52.51a23.16,23.16,0,0,1-4.86-25.11A23.77,23.77,0,0,1,543,20Z" transform="translate(-1.68 -3.59)"/><polygon class="cls-1" points="622.87 54.77 600.87 54.77 600.87 10.15 608.12 10.15 608.12 0.52 586 0.52 586 10.15 590.89 10.15 590.89 54.77 586 54.77 586 64.4 632.49 64.4 632.49 48.22 622.87 48.22 622.87 54.77"/><polygon class="cls-1" points="678.21 48.22 678.21 54.77 656.21 54.77 656.21 37.06 683.21 37.06 683.21 27.43 656.21 27.43 656.21 10.15 676.99 10.15 676.99 16.7 686.61 16.7 686.61 0.52 641.35 0.52 641.35 10.15 646.24 10.15 646.24 54.77 641.35 54.77 641.35 64.4 687.84 64.4 687.84 48.22 678.21 48.22"/><path class="cls-2" d="M405.6,26.38c-.63,1.51-1.28,3.11-2,4.84l-1.06,2.67h9.81l-5-11.84C406.75,23.54,406.16,25,405.6,26.38Z" transform="translate(-1.68 -3.59)"/><path class="cls-1" d="M433.61,58.36c-3.39-8.11-19.88-45.2-24.16-54.25h-3.89c-4.27,9-20.72,46-24.16,54.25h-6.62V68H396.9V58.36h-4.28l6.18-14.57h17.41l3.27,7.81,2.83,6.76h-4.2V68h22.12V58.36Zm-31-24.47,1.06-2.67c.68-1.73,1.33-3.33,2-4.84s1.15-2.84,1.8-4.33l5,11.84Z" transform="translate(-1.68 -3.59)"/></svg>