<?xml version="1.0" encoding="utf-8"?>
<!-- Generator: Adobe Illustrator 15.0.2, SVG Export Plug-In . SVG Version: 6.00 Build 0)  -->
<!DOCTYPE svg PUBLIC "-//W3C//DTD SVG 1.1//EN" "http://www.w3.org/Graphics/SVG/1.1/DTD/svg11.dtd">
<svg version="1.1" id="Layer_1" xmlns="http://www.w3.org/2000/svg" xmlns:xlink="http://www.w3.org/1999/xlink" x="0px" y="0px"
	 width="702.535px" height="75.587px" viewBox="0 0 702.535 75.587" enable-background="new 0 0 702.535 75.587"
	 xml:space="preserve">
<polygon points="0,3.165 0,18.402 7.817,18.402 7.817,10.98 23.349,10.98 23.349,64.604 14.841,64.604 14.841,72.421 38.784,72.421 
	38.784,64.604 31.562,64.604 31.562,10.98 46.896,10.98 46.896,18.402 54.712,18.402 54.712,3.165 "/>
<polygon points="107.145,3.164 131.088,3.164 131.088,10.981 123.272,10.981 123.272,64.604 131.088,64.604 131.088,72.421 
	107.145,72.421 107.145,64.604 115.061,64.604 115.061,41.455 77.663,41.455 77.663,64.604 85.577,64.604 85.577,72.421 
	61.635,72.421 61.635,64.604 69.452,64.604 69.452,10.981 61.635,10.981 61.635,3.164 85.577,3.164 85.577,10.981 77.663,10.981 
	77.663,33.638 115.061,33.638 115.061,10.981 107.145,10.981 "/>
<polygon points="138.012,64.604 143.553,64.604 143.553,10.98 138.012,10.98 138.012,3.164 186.194,3.164 186.194,18.402 
	178.378,18.402 178.378,10.98 151.765,10.98 151.765,33.639 182.336,33.639 182.336,41.455 151.765,41.455 151.765,64.604 
	179.763,64.604 179.763,57.186 187.579,57.186 187.579,72.421 138.012,72.421 "/>
<polygon points="239.026,64.604 247.534,64.604 247.534,10.98 232.001,10.98 232.001,18.402 224.184,18.402 224.184,3.164 
	278.898,3.164 278.898,18.402 271.081,18.402 271.081,10.98 255.746,10.98 255.746,64.604 262.969,64.604 262.969,72.421 
	239.026,72.421 "/>
<g>
	<path d="M286.82,64.604h4.452V10.981h-4.452V3.164h20.777c2.241,0,4.733,0.348,7.47,1.042c2.735,0.69,5.292,1.795,7.667,3.314
		c2.376,1.518,4.354,3.461,5.936,5.837c1.585,2.373,2.376,5.243,2.376,8.605c0,4.949-1.238,9.088-3.712,12.417
		c-2.472,3.332-6.083,5.528-10.832,6.579l11.08,23.646h9.3v7.816h-14.444l-14.544-30.87h-4.254h-4.153v23.053h11.277v7.816H286.82
		V64.604z M299.487,33.539h8.605c2.901,0,5.294-0.376,7.173-1.133c1.881-0.753,3.379-1.691,4.5-2.808
		c1.124-1.114,1.915-2.363,2.376-3.743c0.461-1.379,0.692-2.692,0.692-3.941c0-1.442-0.381-2.822-1.138-4.134
		c-0.757-1.317-1.78-2.479-3.065-3.497c-1.286-1.018-2.839-1.824-4.651-2.414c-1.816-0.591-3.745-0.888-5.788-0.888h-8.704V33.539z"
		/>
	<polygon points="343.807,64.604 351.621,64.604 351.621,10.98 343.807,10.98 343.807,3.164 367.746,3.164 367.746,10.98 
		359.834,10.98 359.834,64.604 367.746,64.604 367.746,72.421 343.807,72.421 	"/>
	<path d="M374.772,64.604h8.062c4.554-10.882,9.118-21.648,13.705-32.301c4.582-10.651,9.149-21.42,13.7-32.302
		c4.552,10.882,9.117,21.651,13.705,32.302c4.583,10.653,9.15,21.419,13.702,32.301h8.161v7.817h-21.863v-7.817h5.488
		c-1.393-3.296-2.768-6.561-4.125-9.791c-1.357-3.233-2.735-6.498-4.127-9.797h-21.823l-8.312,19.588h5.69v7.817h-21.965V64.604z
		 M411.137,21.47l-0.995-3.266c-0.065,0.133-0.133,0.362-0.198,0.693c-0.064,0.33-0.165,0.692-0.295,1.088
		c-0.133,0.463-0.297,0.957-0.495,1.485c-0.859,1.913-1.649,3.792-2.376,5.639c-0.662,1.582-1.35,3.299-2.076,5.142
		c-0.727,1.848-1.387,3.497-1.98,4.949h15.078L411.137,21.47z"/>
	<polygon points="452.635,64.604 461.242,64.604 461.242,10.98 452.635,10.98 452.635,3.164 464.111,3.164 511.896,54.908 
		513.777,57.482 513.481,54.314 513.481,10.98 506.358,10.98 506.358,3.164 530.299,3.164 530.299,10.98 521.693,10.98 
		521.693,75.587 471.036,21.765 469.158,19.193 469.452,22.357 469.452,64.604 476.577,64.604 476.577,72.421 452.635,72.421 	"/>
	<path d="M586.552,42.938v25.524c-2.64,1.521-5.46,2.722-8.461,3.614c-3.001,0.887-6.182,1.333-9.547,1.333
		c-4.881,0-9.463-0.923-13.752-2.771c-4.288-1.843-8.031-4.366-11.229-7.568c-3.199-3.199-5.721-6.942-7.569-11.23
		c-1.847-4.283-2.768-8.868-2.768-13.75c0-4.879,0.921-9.481,2.768-13.802c1.849-4.318,4.37-8.078,7.569-11.279
		c3.198-3.197,6.941-5.737,11.229-7.616c4.289-1.881,8.871-2.822,13.752-2.822c3.365,0,6.546,0.429,9.547,1.288
		s5.853,2.077,8.56,3.661l-4.552,6.628c-2.045-1.187-4.189-2.11-6.43-2.769c-2.243-0.661-4.619-0.991-7.125-0.991
		c-3.757,0-7.271,0.726-10.534,2.177c-3.266,1.453-6.136,3.447-8.611,5.987c-2.472,2.537-4.418,5.49-5.836,8.851
		c-1.418,3.367-2.127,6.927-2.127,10.687c0,3.76,0.709,7.32,2.127,10.685s3.364,6.284,5.836,8.757
		c2.476,2.472,5.346,4.435,8.611,5.886c3.264,1.451,6.777,2.175,10.534,2.175c3.431,0,6.694-0.594,9.795-1.779V50.755h-10.189
		v-7.817H586.552z"/>
	<polygon points="595.474,64.604 601.016,64.604 601.016,10.98 595.474,10.98 595.474,3.164 617.441,3.164 617.441,10.98 
		609.227,10.98 609.227,64.604 637.229,64.604 637.229,57.186 645.042,57.186 645.042,72.421 595.474,72.421 	"/>
	<polygon points="652.969,64.604 658.509,64.604 658.509,10.98 652.969,10.98 652.969,3.164 701.149,3.164 701.149,18.402 
		693.333,18.402 693.333,10.98 666.721,10.98 666.721,33.639 697.291,33.639 697.291,41.455 666.721,41.455 666.721,64.604 
		694.719,64.604 694.719,57.186 702.535,57.186 702.535,72.421 652.969,72.421 	"/>
</g>
</svg>
